<?xml version="1.0" standalone="no"?>
<!DOCTYPE svg PUBLIC "-//W3C//DTD SVG 20010904//EN"
 "http://www.w3.org/TR/2001/REC-SVG-20010904/DTD/svg10.dtd">
<svg version="1.0" xmlns="http://www.w3.org/2000/svg"
 width="40.000000pt" height="40.000000pt" viewBox="0 0 350.000000 350.000000"
 preserveAspectRatio="xMidYMid meet">

<g transform="translate(0.000000,350.000000) scale(0.100000,-0.100000)"
fill="#ffffff" stroke="none">
<path d="M1560 3489 c-528 -56 -1019 -367 -1300 -824 -344 -559 -344 -1271 0
-1830 139 -227 348 -436 575 -575 501 -308 1134 -343 1660 -91 374 179 657
462 836 836 223 466 223 1024 0 1490 -92 192 -198 343 -346 490 -375 376 -897
561 -1425 504z m348 -270 c415 -45 786 -262 1042 -609 122 -166 214 -382 256
-600 25 -131 25 -389 0 -520 -72 -375 -273 -697 -577 -924 -409 -307 -947
-379 -1424 -189 -402 160 -725 504 -858 913 -55 168 -71 272 -71 460 0 188 16
292 71 460 133 409 456 753 858 913 225 90 464 122 703 96z"/>
<path d="M1012 2152 c-62 -34 -91 -116 -61 -175 16 -31 708 -725 741 -743 34
-18 81 -18 116 0 15 8 188 176 384 373 377 378 364 362 358 443 -6 78 -112
135 -183 99 -12 -6 -156 -144 -320 -307 l-297 -297 -303 302 c-166 166 -315
307 -330 313 -39 14 -67 12 -105 -8z"/>
</g>
</svg>
