<?xml version="1.0" encoding="UTF-8"?>
<!DOCTYPE svg PUBLIC "-//W3C//DTD SVG 1.1//EN" "http://www.w3.org/Graphics/SVG/1.1/DTD/svg11.dtd">
<svg xmlns="http://www.w3.org/2000/svg" version="1.1" width="1000px" height="350px" style="shape-rendering:geometricPrecision; text-rendering:geometricPrecision; image-rendering:optimizeQuality; fill-rule:evenodd; clip-rule:evenodd" xmlns:xlink="http://www.w3.org/1999/xlink">
<g><path style="opacity:0.985" fill="#231811" d="M 159.5,66.5 C 155.167,66.5 150.833,66.5 146.5,66.5C 146.5,70.1667 146.5,73.8333 146.5,77.5C 142.167,77.5 137.833,77.5 133.5,77.5C 133.5,73.5 133.5,69.5 133.5,65.5C 137.833,65.5 142.167,65.5 146.5,65.5C 146.5,61.5 146.5,57.5 146.5,53.5C 142.167,53.5 137.833,53.5 133.5,53.5C 133.5,46.1667 133.5,38.8333 133.5,31.5C 129.5,31.5 125.5,31.5 121.5,31.5C 121.5,26.8333 121.5,22.1667 121.5,17.5C 125.5,17.5 129.5,17.5 133.5,17.5C 133.5,13.5 133.5,9.5 133.5,5.5C 138.167,5.5 142.833,5.5 147.5,5.5C 147.5,9.5 147.5,13.5 147.5,17.5C 151.5,17.5 155.5,17.5 159.5,17.5C 159.5,22.1667 159.5,26.8333 159.5,31.5C 155.5,31.5 151.5,31.5 147.5,31.5C 147.5,38.8333 147.5,46.1667 147.5,53.5C 151.5,53.5 155.5,53.5 159.5,53.5C 159.5,57.8333 159.5,62.1667 159.5,66.5 Z M 143.5,20.5 C 143.833,21.8333 144.167,21.8333 144.5,20.5C 145.833,23.1667 145.833,25.8333 144.5,28.5C 142.064,27.0669 139.731,27.4002 137.5,29.5C 134.943,26.4937 134.943,23.4937 137.5,20.5C 139.74,20.0692 141.74,20.0692 143.5,20.5 Z"/></g>
<g><path style="opacity:1" fill="#3c2a1e" d="M 133.5,53.5 C 137.833,53.5 142.167,53.5 146.5,53.5C 146.5,57.5 146.5,61.5 146.5,65.5C 142.167,65.5 137.833,65.5 133.5,65.5C 133.5,61.5 133.5,57.5 133.5,53.5 Z"/></g>
<g><path style="opacity:1" fill="#3c2a1e" d="M 133.5,65.5 C 133.5,69.5 133.5,73.5 133.5,77.5C 133.5,78.1667 133.5,78.8333 133.5,79.5C 129.5,79.5 125.5,79.5 121.5,79.5C 121.5,74.8333 121.5,70.1667 121.5,65.5C 125.5,65.5 129.5,65.5 133.5,65.5 Z"/></g>
<g><path style="opacity:1" fill="#ae1a0f" d="M 133.5,77.5 C 137.833,77.5 142.167,77.5 146.5,77.5C 147.485,81.6344 147.818,85.9677 147.5,90.5C 142.833,90.5 138.167,90.5 133.5,90.5C 133.5,90.1667 133.5,89.8333 133.5,89.5C 133.5,86.1667 133.5,82.8333 133.5,79.5C 133.5,78.8333 133.5,78.1667 133.5,77.5 Z"/></g>
<g><path style="opacity:1" fill="#fe4500" d="M 133.5,89.5 C 133.5,89.8333 133.5,90.1667 133.5,90.5C 133.5,94.8333 133.5,99.1667 133.5,103.5C 129.5,103.5 125.5,103.5 121.5,103.5C 121.5,98.8333 121.5,94.1667 121.5,89.5C 125.5,89.5 129.5,89.5 133.5,89.5 Z"/></g>
<g><path style="opacity:1" fill="#302118" d="M 133.5,90.5 C 138.167,90.5 142.833,90.5 147.5,90.5C 147.5,94.8333 147.5,99.1667 147.5,103.5C 151.5,103.5 155.5,103.5 159.5,103.5C 159.5,118.833 159.5,134.167 159.5,149.5C 155.5,149.5 151.5,149.5 147.5,149.5C 147.5,145.5 147.5,141.5 147.5,137.5C 142.833,137.5 138.167,137.5 133.5,137.5C 133.5,126.167 133.5,114.833 133.5,103.5C 133.5,99.1667 133.5,94.8333 133.5,90.5 Z"/></g>
<g><path style="opacity:1" fill="#3a281d" d="M 159.5,66.5 C 163.167,66.5 166.833,66.5 170.5,66.5C 170.5,70.1667 170.5,73.8333 170.5,77.5C 166.833,77.5 163.167,77.5 159.5,77.5C 159.5,86.1667 159.5,94.8333 159.5,103.5C 155.5,103.5 151.5,103.5 147.5,103.5C 147.5,99.1667 147.5,94.8333 147.5,90.5C 147.818,85.9677 147.485,81.6344 146.5,77.5C 146.5,73.8333 146.5,70.1667 146.5,66.5C 150.833,66.5 155.167,66.5 159.5,66.5 Z"/></g>
<g><path style="opacity:0.976" fill="#9d1a0f" d="M 170.5,100.5 C 175.141,101.127 179.807,101.46 184.5,101.5C 184.5,106.167 184.5,110.833 184.5,115.5C 179.167,115.5 173.833,115.5 168.5,115.5C 167.974,110.193 168.64,105.193 170.5,100.5 Z"/></g>
<g><path style="opacity:0.915" fill="#fefffe" d="M 934.5,109.5 C 939.167,109.5 943.833,109.5 948.5,109.5C 948.5,131.167 948.5,152.833 948.5,174.5C 943.833,174.5 939.167,174.5 934.5,174.5C 934.5,152.833 934.5,131.167 934.5,109.5 Z"/></g>
<g><path style="opacity:0.929" fill="#fefffe" d="M 330.5,110.5 C 343.833,110.5 357.167,110.5 370.5,110.5C 370.5,114.833 370.5,119.167 370.5,123.5C 374.833,123.5 379.167,123.5 383.5,123.5C 383.5,127.833 383.5,132.167 383.5,136.5C 379.167,136.5 374.833,136.5 370.5,136.5C 370.5,140.5 370.5,144.5 370.5,148.5C 374.833,148.5 379.167,148.5 383.5,148.5C 383.5,153.167 383.5,157.833 383.5,162.5C 379.167,162.5 374.833,162.5 370.5,162.5C 370.5,166.5 370.5,170.5 370.5,174.5C 357.167,174.5 343.833,174.5 330.5,174.5C 330.5,153.167 330.5,131.833 330.5,110.5 Z M 344.5,123.5 C 352.833,123.5 361.167,123.5 369.5,123.5C 369.5,127.5 369.5,131.5 369.5,135.5C 361.167,135.5 352.833,135.5 344.5,135.5C 344.5,131.5 344.5,127.5 344.5,123.5 Z M 344.5,149.5 C 352.833,149.5 361.167,149.5 369.5,149.5C 369.5,153.5 369.5,157.5 369.5,161.5C 361.167,161.5 352.833,161.5 344.5,161.5C 344.5,157.5 344.5,153.5 344.5,149.5 Z"/></g>
<g><path style="opacity:0.924" fill="#fefffe" d="M 420.5,110.5 C 429.5,110.5 438.5,110.5 447.5,110.5C 447.5,114.833 447.5,119.167 447.5,123.5C 451.833,123.5 456.167,123.5 460.5,123.5C 460.5,140.5 460.5,157.5 460.5,174.5C 455.833,174.5 451.167,174.5 446.5,174.5C 446.5,166.167 446.5,157.833 446.5,149.5C 438.167,149.5 429.833,149.5 421.5,149.5C 421.5,157.833 421.5,166.167 421.5,174.5C 416.833,174.5 412.167,174.5 407.5,174.5C 407.5,157.5 407.5,140.5 407.5,123.5C 411.833,123.5 416.167,123.5 420.5,123.5C 420.5,119.167 420.5,114.833 420.5,110.5 Z M 421.5,124.5 C 429.833,124.5 438.167,124.5 446.5,124.5C 446.5,128.167 446.5,131.833 446.5,135.5C 438.167,135.5 429.833,135.5 421.5,135.5C 421.5,131.833 421.5,128.167 421.5,124.5 Z"/></g>
<g><path style="opacity:0.929" fill="#fefffe" d="M 484.5,110.5 C 497.833,110.5 511.167,110.5 524.5,110.5C 524.5,114.833 524.5,119.167 524.5,123.5C 528.833,123.5 533.167,123.5 537.5,123.5C 537.5,127.833 537.5,132.167 537.5,136.5C 533.167,136.5 528.833,136.5 524.5,136.5C 524.5,140.5 524.5,144.5 524.5,148.5C 528.833,148.5 533.167,148.5 537.5,148.5C 537.5,153.167 537.5,157.833 537.5,162.5C 533.167,162.5 528.833,162.5 524.5,162.5C 524.5,166.5 524.5,170.5 524.5,174.5C 511.167,174.5 497.833,174.5 484.5,174.5C 484.5,153.167 484.5,131.833 484.5,110.5 Z M 498.5,123.5 C 506.833,123.5 515.167,123.5 523.5,123.5C 523.5,127.5 523.5,131.5 523.5,135.5C 515.167,135.5 506.833,135.5 498.5,135.5C 498.5,131.5 498.5,127.5 498.5,123.5 Z M 498.5,149.5 C 506.833,149.5 515.167,149.5 523.5,149.5C 523.5,153.5 523.5,157.5 523.5,161.5C 515.167,161.5 506.833,161.5 498.5,161.5C 498.5,157.5 498.5,153.5 498.5,149.5 Z"/></g>
<g><path style="opacity:0.924" fill="#fefffe" d="M 574.5,110.5 C 583.5,110.5 592.5,110.5 601.5,110.5C 601.5,114.833 601.5,119.167 601.5,123.5C 605.833,123.5 610.167,123.5 614.5,123.5C 614.5,140.5 614.5,157.5 614.5,174.5C 609.833,174.5 605.167,174.5 600.5,174.5C 600.5,166.167 600.5,157.833 600.5,149.5C 592.167,149.5 583.833,149.5 575.5,149.5C 575.5,157.833 575.5,166.167 575.5,174.5C 570.833,174.5 566.167,174.5 561.5,174.5C 561.5,157.5 561.5,140.5 561.5,123.5C 565.833,123.5 570.167,123.5 574.5,123.5C 574.5,119.167 574.5,114.833 574.5,110.5 Z M 575.5,124.5 C 583.833,124.5 592.167,124.5 600.5,124.5C 600.5,128.167 600.5,131.833 600.5,135.5C 592.167,135.5 583.833,135.5 575.5,135.5C 575.5,131.833 575.5,128.167 575.5,124.5 Z"/></g>
<g><path style="opacity:0.929" fill="#fefffe" d="M 639.5,110.5 C 652.833,110.5 666.167,110.5 679.5,110.5C 679.5,114.833 679.5,119.167 679.5,123.5C 683.833,123.5 688.167,123.5 692.5,123.5C 692.5,136.5 692.5,149.5 692.5,162.5C 688.167,162.5 683.833,162.5 679.5,162.5C 679.5,166.5 679.5,170.5 679.5,174.5C 666.167,174.5 652.833,174.5 639.5,174.5C 639.5,153.167 639.5,131.833 639.5,110.5 Z M 653.5,124.5 C 661.833,124.5 670.167,124.5 678.5,124.5C 678.5,136.833 678.5,149.167 678.5,161.5C 670.167,161.5 661.833,161.5 653.5,161.5C 653.5,149.167 653.5,136.833 653.5,124.5 Z"/></g>
<g><path style="opacity:0.922" fill="#fefffe" d="M 716.5,110.5 C 729.833,110.5 743.167,110.5 756.5,110.5C 756.5,119.167 756.5,127.833 756.5,136.5C 752.167,136.5 747.833,136.5 743.5,136.5C 743.5,140.833 743.5,145.167 743.5,149.5C 739.167,149.5 734.833,149.5 730.5,149.5C 730.5,153.5 730.5,157.5 730.5,161.5C 739.167,161.5 747.833,161.5 756.5,161.5C 756.5,165.833 756.5,170.167 756.5,174.5C 743.167,174.5 729.833,174.5 716.5,174.5C 716.5,165.833 716.5,157.167 716.5,148.5C 720.833,148.5 725.167,148.5 729.5,148.5C 729.5,144.167 729.5,139.833 729.5,135.5C 733.833,135.5 738.167,135.5 742.5,135.5C 742.5,131.833 742.5,128.167 742.5,124.5C 733.833,124.5 725.167,124.5 716.5,124.5C 716.5,119.833 716.5,115.167 716.5,110.5 Z"/></g>
<g><path style="opacity:0.924" fill="#fefffe" d="M 793.5,110.5 C 802.5,110.5 811.5,110.5 820.5,110.5C 820.5,114.833 820.5,119.167 820.5,123.5C 824.833,123.5 829.167,123.5 833.5,123.5C 833.5,140.5 833.5,157.5 833.5,174.5C 828.833,174.5 824.167,174.5 819.5,174.5C 819.5,166.167 819.5,157.833 819.5,149.5C 811.167,149.5 802.833,149.5 794.5,149.5C 794.5,157.833 794.5,166.167 794.5,174.5C 789.833,174.5 785.167,174.5 780.5,174.5C 780.5,157.5 780.5,140.5 780.5,123.5C 784.833,123.5 789.167,123.5 793.5,123.5C 793.5,119.167 793.5,114.833 793.5,110.5 Z M 794.5,124.5 C 802.833,124.5 811.167,124.5 819.5,124.5C 819.5,128.167 819.5,131.833 819.5,135.5C 811.167,135.5 802.833,135.5 794.5,135.5C 794.5,131.833 794.5,128.167 794.5,124.5 Z"/></g>
<g><path style="opacity:0.903" fill="#fefffe" d="M 857.5,110.5 C 862.167,110.5 866.833,110.5 871.5,110.5C 871.5,118.833 871.5,127.167 871.5,135.5C 875.5,135.5 879.5,135.5 883.5,135.5C 883.5,131.5 883.5,127.5 883.5,123.5C 887.833,123.5 892.167,123.5 896.5,123.5C 896.5,119.167 896.5,114.833 896.5,110.5C 901.167,110.5 905.833,110.5 910.5,110.5C 910.5,115.167 910.5,119.833 910.5,124.5C 906.167,124.5 901.833,124.5 897.5,124.5C 897.5,128.5 897.5,132.5 897.5,136.5C 893.167,136.5 888.833,136.5 884.5,136.5C 884.5,140.5 884.5,144.5 884.5,148.5C 888.833,148.5 893.167,148.5 897.5,148.5C 897.5,152.833 897.5,157.167 897.5,161.5C 901.833,161.5 906.167,161.5 910.5,161.5C 910.5,165.833 910.5,170.167 910.5,174.5C 905.833,174.5 901.167,174.5 896.5,174.5C 896.5,170.5 896.5,166.5 896.5,162.5C 892.167,162.5 887.833,162.5 883.5,162.5C 883.5,158.167 883.5,153.833 883.5,149.5C 879.5,149.5 875.5,149.5 871.5,149.5C 871.5,157.833 871.5,166.167 871.5,174.5C 866.833,174.5 862.167,174.5 857.5,174.5C 857.5,153.167 857.5,131.833 857.5,110.5 Z"/></g>
<g><path style="opacity:1" fill="#991b0f" d="M 108.5,137.5 C 113.833,137.5 119.167,137.5 124.5,137.5C 124.5,142.167 124.5,146.833 124.5,151.5C 119.167,151.5 113.833,151.5 108.5,151.5C 108.5,146.833 108.5,142.167 108.5,137.5 Z"/></g>
<g><path style="opacity:1" fill="#ae1a0f" d="M 133.5,137.5 C 138.167,137.5 142.833,137.5 147.5,137.5C 147.5,141.5 147.5,145.5 147.5,149.5C 147.5,149.833 147.5,150.167 147.5,150.5C 142.833,150.5 138.167,150.5 133.5,150.5C 133.5,146.167 133.5,141.833 133.5,137.5 Z"/></g>
<g><path style="opacity:1" fill="#ae1a0f" d="M 183.5,150.5 C 179.5,150.5 175.5,150.5 171.5,150.5C 171.5,150.167 171.5,149.833 171.5,149.5C 171.5,145.5 171.5,141.5 171.5,137.5C 175.5,137.5 179.5,137.5 183.5,137.5C 183.5,141.833 183.5,146.167 183.5,150.5 Z"/></g>
<g><path style="opacity:1" fill="#3f2b20" d="M 147.5,149.5 C 151.5,149.5 155.5,149.5 159.5,149.5C 163.5,149.5 167.5,149.5 171.5,149.5C 171.5,149.833 171.5,150.167 171.5,150.5C 171.5,154.167 171.5,157.833 171.5,161.5C 166.833,161.5 162.167,161.5 157.5,161.5C 157.5,165.5 157.5,169.5 157.5,173.5C 154.167,173.5 150.833,173.5 147.5,173.5C 147.5,165.833 147.5,158.167 147.5,150.5C 147.5,150.167 147.5,149.833 147.5,149.5 Z"/></g>
<g><path style="opacity:1" fill="#fe4500" d="M 133.5,150.5 C 138.167,150.5 142.833,150.5 147.5,150.5C 147.5,158.167 147.5,165.833 147.5,173.5C 147.5,177.5 147.5,181.5 147.5,185.5C 147.5,189.833 147.5,194.167 147.5,198.5C 143.167,198.5 138.833,198.5 134.5,198.5C 134.5,190.833 134.5,183.167 134.5,175.5C 130.167,175.5 125.833,175.5 121.5,175.5C 121.5,170.833 121.5,166.167 121.5,161.5C 125.5,161.5 129.5,161.5 133.5,161.5C 133.5,157.833 133.5,154.167 133.5,150.5 Z"/></g>
<g><path style="opacity:1" fill="#fe4500" d="M 171.5,150.5 C 175.5,150.5 179.5,150.5 183.5,150.5C 183.5,162.167 183.5,173.833 183.5,185.5C 179.5,185.5 175.5,185.5 171.5,185.5C 171.5,177.5 171.5,169.5 171.5,161.5C 171.5,157.833 171.5,154.167 171.5,150.5 Z"/></g>
<g><path style="opacity:1" fill="#ae1a0f" d="M 171.5,161.5 C 171.5,169.5 171.5,177.5 171.5,185.5C 166.833,185.5 162.167,185.5 157.5,185.5C 157.5,181.5 157.5,177.5 157.5,173.5C 157.5,169.5 157.5,165.5 157.5,161.5C 162.167,161.5 166.833,161.5 171.5,161.5 Z"/></g>
<g><path style="opacity:1" fill="#e86432" d="M 147.5,173.5 C 150.833,173.5 154.167,173.5 157.5,173.5C 157.5,177.5 157.5,181.5 157.5,185.5C 154.167,185.5 150.833,185.5 147.5,185.5C 147.5,181.5 147.5,177.5 147.5,173.5 Z"/></g>
<g><path style="opacity:1" fill="#ae1a0f" d="M 121.5,175.5 C 125.833,175.5 130.167,175.5 134.5,175.5C 134.5,183.167 134.5,190.833 134.5,198.5C 134.5,202.167 134.5,205.833 134.5,209.5C 130.167,209.5 125.833,209.5 121.5,209.5C 121.5,198.167 121.5,186.833 121.5,175.5 Z"/></g>
<g><path style="opacity:1" fill="#ba6643" d="M 147.5,185.5 C 150.833,185.5 154.167,185.5 157.5,185.5C 157.5,189.833 157.5,194.167 157.5,198.5C 154.167,198.5 150.833,198.5 147.5,198.5C 147.5,194.167 147.5,189.833 147.5,185.5 Z"/></g>
<g><path style="opacity:1" fill="#e8b832" d="M 157.5,185.5 C 162.167,185.5 166.833,185.5 171.5,185.5C 171.5,189.833 171.5,194.167 171.5,198.5C 166.833,198.5 162.167,198.5 157.5,198.5C 157.5,194.167 157.5,189.833 157.5,185.5 Z"/></g>
<g><path style="opacity:1" fill="#e86432" d="M 171.5,185.5 C 175.5,185.5 179.5,185.5 183.5,185.5C 183.5,189.833 183.5,194.167 183.5,198.5C 179.5,198.5 175.5,198.5 171.5,198.5C 171.5,194.167 171.5,189.833 171.5,185.5 Z"/></g>
<g><path style="opacity:1" fill="#ae1a0f" d="M 183.5,185.5 C 187.5,185.5 191.5,185.5 195.5,185.5C 195.5,190.167 195.5,194.833 195.5,199.5C 191.5,199.5 187.5,199.5 183.5,199.5C 183.5,203.167 183.5,206.833 183.5,210.5C 179.5,210.5 175.5,210.5 171.5,210.5C 171.5,206.5 171.5,202.5 171.5,198.5C 175.5,198.5 179.5,198.5 183.5,198.5C 183.5,194.167 183.5,189.833 183.5,185.5 Z"/></g>
<g><path style="opacity:1" fill="#e86432" d="M 134.5,198.5 C 138.833,198.5 143.167,198.5 147.5,198.5C 147.5,202.167 147.5,205.833 147.5,209.5C 143.167,209.5 138.833,209.5 134.5,209.5C 134.5,205.833 134.5,202.167 134.5,198.5 Z"/></g>
<g><path style="opacity:1" fill="#e8b832" d="M 147.5,198.5 C 150.833,198.5 154.167,198.5 157.5,198.5C 157.5,206.833 157.5,215.167 157.5,223.5C 153.833,223.5 150.167,223.5 146.5,223.5C 142.5,223.5 138.5,223.5 134.5,223.5C 134.5,218.833 134.5,214.167 134.5,209.5C 138.833,209.5 143.167,209.5 147.5,209.5C 147.5,205.833 147.5,202.167 147.5,198.5 Z"/></g>
<g><path style="opacity:1" fill="#ba6643" d="M 157.5,198.5 C 162.167,198.5 166.833,198.5 171.5,198.5C 171.5,202.5 171.5,206.5 171.5,210.5C 171.5,214.833 171.5,219.167 171.5,223.5C 166.833,223.5 162.167,223.5 157.5,223.5C 157.5,215.167 157.5,206.833 157.5,198.5 Z"/></g>
<g><path style="opacity:1" fill="#ae1a0f" d="M 121.5,209.5 C 121.5,214.167 121.5,218.833 121.5,223.5C 117.5,223.5 113.5,223.5 109.5,223.5C 109.5,218.833 109.5,214.167 109.5,209.5C 113.5,209.5 117.5,209.5 121.5,209.5 Z"/></g>
<g><path style="opacity:1" fill="#fe4500" d="M 121.5,209.5 C 125.833,209.5 130.167,209.5 134.5,209.5C 134.5,214.167 134.5,218.833 134.5,223.5C 130.167,223.5 125.833,223.5 121.5,223.5C 121.5,218.833 121.5,214.167 121.5,209.5 Z"/></g>
<g><path style="opacity:1" fill="#fe4500" d="M 171.5,210.5 C 175.5,210.5 179.5,210.5 183.5,210.5C 183.5,214.833 183.5,219.167 183.5,223.5C 179.5,223.5 175.5,223.5 171.5,223.5C 171.5,219.167 171.5,214.833 171.5,210.5 Z"/></g>
<g><path style="opacity:1" fill="#ae1a0f" d="M 121.5,223.5 C 125.833,223.5 130.167,223.5 134.5,223.5C 134.5,227.167 134.5,230.833 134.5,234.5C 130.167,234.5 125.833,234.5 121.5,234.5C 121.5,230.833 121.5,227.167 121.5,223.5 Z"/></g>
<g><path style="opacity:1" fill="#fe4500" d="M 134.5,223.5 C 138.5,223.5 142.5,223.5 146.5,223.5C 146.5,226.833 146.5,230.167 146.5,233.5C 146.5,233.833 146.5,234.167 146.5,234.5C 142.5,234.5 138.5,234.5 134.5,234.5C 134.5,230.833 134.5,227.167 134.5,223.5 Z"/></g>
<g><path style="opacity:1" fill="#ba6643" d="M 146.5,223.5 C 150.167,223.5 153.833,223.5 157.5,223.5C 157.5,226.833 157.5,230.167 157.5,233.5C 153.833,233.5 150.167,233.5 146.5,233.5C 146.5,230.167 146.5,226.833 146.5,223.5 Z"/></g>
<g><path style="opacity:1" fill="#e8b832" d="M 157.5,223.5 C 162.167,223.5 166.833,223.5 171.5,223.5C 171.5,226.833 171.5,230.167 171.5,233.5C 171.5,237.5 171.5,241.5 171.5,245.5C 163.167,245.5 154.833,245.5 146.5,245.5C 146.5,241.833 146.5,238.167 146.5,234.5C 146.5,234.167 146.5,233.833 146.5,233.5C 150.167,233.5 153.833,233.5 157.5,233.5C 157.5,230.167 157.5,226.833 157.5,223.5 Z"/></g>
<g><path style="opacity:1" fill="#ba6643" d="M 171.5,223.5 C 175.5,223.5 179.5,223.5 183.5,223.5C 183.5,226.833 183.5,230.167 183.5,233.5C 179.5,233.5 175.5,233.5 171.5,233.5C 171.5,230.167 171.5,226.833 171.5,223.5 Z"/></g>
<g><path style="opacity:1" fill="#fe4500" d="M 171.5,233.5 C 175.5,233.5 179.5,233.5 183.5,233.5C 183.5,237.5 183.5,241.5 183.5,245.5C 179.5,245.5 175.5,245.5 171.5,245.5C 171.5,241.5 171.5,237.5 171.5,233.5 Z"/></g>
<g><path style="opacity:1" fill="#fe4500" d="M 121.5,234.5 C 125.833,234.5 130.167,234.5 134.5,234.5C 134.5,238.167 134.5,241.833 134.5,245.5C 129.968,245.818 125.634,245.485 121.5,244.5C 121.5,241.167 121.5,237.833 121.5,234.5 Z"/></g>
<g><path style="opacity:1" fill="#ba6643" d="M 134.5,234.5 C 138.5,234.5 142.5,234.5 146.5,234.5C 146.5,238.167 146.5,241.833 146.5,245.5C 142.5,245.5 138.5,245.5 134.5,245.5C 134.5,241.833 134.5,238.167 134.5,234.5 Z"/></g>
<g><path style="opacity:0.911" fill="#fefffe" d="M 484.5,239.5 C 497.833,239.5 511.167,239.5 524.5,239.5C 524.5,244.167 524.5,248.833 524.5,253.5C 511.5,253.5 498.5,253.5 485.5,253.5C 485.5,257.167 485.5,260.833 485.5,264.5C 494.167,264.5 502.833,264.5 511.5,264.5C 511.5,268.833 511.5,273.167 511.5,277.5C 515.833,277.5 520.167,277.5 524.5,277.5C 524.5,282.167 524.5,286.833 524.5,291.5C 520.167,291.5 515.833,291.5 511.5,291.5C 511.5,295.5 511.5,299.5 511.5,303.5C 498.167,303.5 484.833,303.5 471.5,303.5C 471.5,299.167 471.5,294.833 471.5,290.5C 484.5,290.5 497.5,290.5 510.5,290.5C 510.5,286.5 510.5,282.5 510.5,278.5C 501.833,278.5 493.167,278.5 484.5,278.5C 484.5,274.167 484.5,269.833 484.5,265.5C 480.167,265.5 475.833,265.5 471.5,265.5C 471.5,261.167 471.5,256.833 471.5,252.5C 475.833,252.5 480.167,252.5 484.5,252.5C 484.5,248.167 484.5,243.833 484.5,239.5 Z"/></g>
<g><path style="opacity:0.924" fill="#fefffe" d="M 549.5,239.5 C 562.833,239.5 576.167,239.5 589.5,239.5C 589.5,244.167 589.5,248.833 589.5,253.5C 585.167,253.5 580.833,253.5 576.5,253.5C 576.5,270.167 576.5,286.833 576.5,303.5C 571.833,303.5 567.167,303.5 562.5,303.5C 562.5,286.833 562.5,270.167 562.5,253.5C 558.167,253.5 553.833,253.5 549.5,253.5C 549.5,248.833 549.5,244.167 549.5,239.5 Z"/></g>
<g><path style="opacity:0.912" fill="#fefffe" d="M 626.5,239.5 C 635.5,239.5 644.5,239.5 653.5,239.5C 653.5,243.833 653.5,248.167 653.5,252.5C 657.833,252.5 662.167,252.5 666.5,252.5C 666.5,265.5 666.5,278.5 666.5,291.5C 662.167,291.5 657.833,291.5 653.5,291.5C 653.5,295.5 653.5,299.5 653.5,303.5C 644.5,303.5 635.5,303.5 626.5,303.5C 626.5,299.5 626.5,295.5 626.5,291.5C 622.167,291.5 617.833,291.5 613.5,291.5C 613.5,278.5 613.5,265.5 613.5,252.5C 617.833,252.5 622.167,252.5 626.5,252.5C 626.5,248.167 626.5,243.833 626.5,239.5 Z M 627.5,253.5 C 635.833,253.5 644.167,253.5 652.5,253.5C 652.5,265.833 652.5,278.167 652.5,290.5C 644.167,290.5 635.833,290.5 627.5,290.5C 627.5,278.167 627.5,265.833 627.5,253.5 Z"/></g>
<g><path style="opacity:0.924" fill="#fefffe" d="M 690.5,239.5 C 703.833,239.5 717.167,239.5 730.5,239.5C 730.5,243.833 730.5,248.167 730.5,252.5C 734.833,252.5 739.167,252.5 743.5,252.5C 743.5,256.833 743.5,261.167 743.5,265.5C 739.167,265.5 734.833,265.5 730.5,265.5C 730.5,273.833 730.5,282.167 730.5,290.5C 734.833,290.5 739.167,290.5 743.5,290.5C 743.5,294.833 743.5,299.167 743.5,303.5C 738.833,303.5 734.167,303.5 729.5,303.5C 729.5,299.5 729.5,295.5 729.5,291.5C 725.167,291.5 720.833,291.5 716.5,291.5C 716.5,287.167 716.5,282.833 716.5,278.5C 712.5,278.5 708.5,278.5 704.5,278.5C 704.5,286.833 704.5,295.167 704.5,303.5C 699.833,303.5 695.167,303.5 690.5,303.5C 690.5,282.167 690.5,260.833 690.5,239.5 Z M 704.5,252.5 C 712.833,252.5 721.167,252.5 729.5,252.5C 729.5,256.5 729.5,260.5 729.5,264.5C 721.167,264.5 712.833,264.5 704.5,264.5C 704.5,260.5 704.5,256.5 704.5,252.5 Z"/></g>
<g><path style="opacity:0.934" fill="#fefffe" d="M 767.5,239.5 C 780.833,239.5 794.167,239.5 807.5,239.5C 807.5,244.167 807.5,248.833 807.5,253.5C 798.833,253.5 790.167,253.5 781.5,253.5C 781.5,257.167 781.5,260.833 781.5,264.5C 790.167,264.5 798.833,264.5 807.5,264.5C 807.5,269.167 807.5,273.833 807.5,278.5C 798.833,278.5 790.167,278.5 781.5,278.5C 781.5,282.5 781.5,286.5 781.5,290.5C 790.167,290.5 798.833,290.5 807.5,290.5C 807.5,294.833 807.5,299.167 807.5,303.5C 794.167,303.5 780.833,303.5 767.5,303.5C 767.5,282.167 767.5,260.833 767.5,239.5 Z"/></g>
<g><path style="opacity:1" fill="#df6031" d="M 121.5,244.5 C 125.634,245.485 129.968,245.818 134.5,245.5C 134.5,253.5 134.5,261.5 134.5,269.5C 130.167,269.5 125.833,269.5 121.5,269.5C 121.817,265.298 121.483,261.298 120.5,257.5C 120.182,252.968 120.515,248.634 121.5,244.5 Z"/></g>
<g><path style="opacity:1" fill="#fe4500" d="M 134.5,245.5 C 138.5,245.5 142.5,245.5 146.5,245.5C 146.5,253.5 146.5,261.5 146.5,269.5C 142.5,269.5 138.5,269.5 134.5,269.5C 134.5,261.5 134.5,253.5 134.5,245.5 Z"/></g>
<g><path style="opacity:1" fill="#ba6643" d="M 146.5,245.5 C 154.833,245.5 163.167,245.5 171.5,245.5C 171.5,249.5 171.5,253.5 171.5,257.5C 166.833,257.5 162.167,257.5 157.5,257.5C 157.5,261.5 157.5,265.5 157.5,269.5C 153.833,269.5 150.167,269.5 146.5,269.5C 146.5,261.5 146.5,253.5 146.5,245.5 Z"/></g>
<g><path style="opacity:1" fill="#e86432" d="M 171.5,245.5 C 175.5,245.5 179.5,245.5 183.5,245.5C 183.5,249.5 183.5,253.5 183.5,257.5C 179.5,257.5 175.5,257.5 171.5,257.5C 171.5,253.5 171.5,249.5 171.5,245.5 Z"/></g>
<g><path style="opacity:1" fill="#ba6643" d="M 183.5,245.5 C 187.5,245.5 191.5,245.5 195.5,245.5C 195.5,249.5 195.5,253.5 195.5,257.5C 191.5,257.5 187.5,257.5 183.5,257.5C 183.5,253.5 183.5,249.5 183.5,245.5 Z"/></g>
<g><path style="opacity:1" fill="#fe4500" d="M 120.5,257.5 C 121.483,261.298 121.817,265.298 121.5,269.5C 121.5,273.5 121.5,277.5 121.5,281.5C 117.833,281.5 114.167,281.5 110.5,281.5C 110.5,273.5 110.5,265.5 110.5,257.5C 113.833,257.5 117.167,257.5 120.5,257.5 Z"/></g>
<g><path style="opacity:1" fill="#e8b832" d="M 171.5,257.5 C 171.5,261.5 171.5,265.5 171.5,269.5C 166.833,269.5 162.167,269.5 157.5,269.5C 157.5,265.5 157.5,261.5 157.5,257.5C 162.167,257.5 166.833,257.5 171.5,257.5 Z"/></g>
<g><path style="opacity:1" fill="#ba6643" d="M 171.5,257.5 C 175.5,257.5 179.5,257.5 183.5,257.5C 183.5,261.5 183.5,265.5 183.5,269.5C 179.5,269.5 175.5,269.5 171.5,269.5C 171.5,265.5 171.5,261.5 171.5,257.5 Z"/></g>
<g><path style="opacity:1" fill="#fe4500" d="M 183.5,257.5 C 187.5,257.5 191.5,257.5 195.5,257.5C 195.5,261.5 195.5,265.5 195.5,269.5C 191.5,269.5 187.5,269.5 183.5,269.5C 183.5,265.5 183.5,261.5 183.5,257.5 Z"/></g>
<g><path style="opacity:1" fill="#ba6643" d="M 121.5,269.5 C 125.833,269.5 130.167,269.5 134.5,269.5C 138.5,269.5 142.5,269.5 146.5,269.5C 146.5,273.5 146.5,277.5 146.5,281.5C 142.5,281.5 138.5,281.5 134.5,281.5C 130.167,281.5 125.833,281.5 121.5,281.5C 121.5,277.5 121.5,273.5 121.5,269.5 Z"/></g>
<g><path style="opacity:1" fill="#e8b832" d="M 146.5,269.5 C 150.167,269.5 153.833,269.5 157.5,269.5C 157.5,274.167 157.5,278.833 157.5,283.5C 162.167,283.5 166.833,283.5 171.5,283.5C 171.5,278.833 171.5,274.167 171.5,269.5C 175.5,269.5 179.5,269.5 183.5,269.5C 183.5,273.5 183.5,277.5 183.5,281.5C 187.5,281.5 191.5,281.5 195.5,281.5C 195.5,277.5 195.5,273.5 195.5,269.5C 199.5,269.5 203.5,269.5 207.5,269.5C 207.5,273.5 207.5,277.5 207.5,281.5C 207.5,285.833 207.5,290.167 207.5,294.5C 203.5,294.5 199.5,294.5 195.5,294.5C 175.167,294.5 154.833,294.5 134.5,294.5C 134.5,290.167 134.5,285.833 134.5,281.5C 138.5,281.5 142.5,281.5 146.5,281.5C 146.5,277.5 146.5,273.5 146.5,269.5 Z"/></g>
<g><path style="opacity:1" fill="#ba6643" d="M 157.5,269.5 C 162.167,269.5 166.833,269.5 171.5,269.5C 171.5,274.167 171.5,278.833 171.5,283.5C 166.833,283.5 162.167,283.5 157.5,283.5C 157.5,278.833 157.5,274.167 157.5,269.5 Z"/></g>
<g><path style="opacity:1" fill="#ba6643" d="M 183.5,269.5 C 187.5,269.5 191.5,269.5 195.5,269.5C 195.5,273.5 195.5,277.5 195.5,281.5C 191.5,281.5 187.5,281.5 183.5,281.5C 183.5,277.5 183.5,273.5 183.5,269.5 Z"/></g>
<g><path style="opacity:1" fill="#4f5240" d="M 110.5,281.5 C 110.5,285.833 110.5,290.167 110.5,294.5C 106.167,294.5 101.833,294.5 97.5,294.5C 97.5,290.167 97.5,285.833 97.5,281.5C 101.833,281.5 106.167,281.5 110.5,281.5 Z"/></g>
<g><path style="opacity:1" fill="#8e8560" d="M 110.5,281.5 C 114.167,281.5 117.833,281.5 121.5,281.5C 125.833,281.5 130.167,281.5 134.5,281.5C 134.5,285.833 134.5,290.167 134.5,294.5C 126.5,294.5 118.5,294.5 110.5,294.5C 110.5,290.167 110.5,285.833 110.5,281.5 Z"/></g>
<g><path style="opacity:1" fill="#8e8560" d="M 207.5,281.5 C 211.5,281.5 215.5,281.5 219.5,281.5C 219.5,285.833 219.5,290.167 219.5,294.5C 215.5,294.5 211.5,294.5 207.5,294.5C 207.5,290.167 207.5,285.833 207.5,281.5 Z"/></g>
<g><path style="opacity:1" fill="#4f5240" d="M 97.5,294.5 C 97.5,298.167 97.5,301.833 97.5,305.5C 89.8333,305.5 82.1667,305.5 74.5,305.5C 70.1667,305.5 65.8333,305.5 61.5,305.5C 61.5,301.833 61.5,298.167 61.5,294.5C 73.5,294.5 85.5,294.5 97.5,294.5 Z"/></g>
<g><path style="opacity:1" fill="#726b4d" d="M 97.5,294.5 C 101.833,294.5 106.167,294.5 110.5,294.5C 110.5,298.167 110.5,301.833 110.5,305.5C 106.167,305.5 101.833,305.5 97.5,305.5C 97.5,301.833 97.5,298.167 97.5,294.5 Z"/></g>
<g><path style="opacity:1" fill="#8e8560" d="M 134.5,294.5 C 154.833,294.5 175.167,294.5 195.5,294.5C 195.5,298.167 195.5,301.833 195.5,305.5C 187.5,305.5 179.5,305.5 171.5,305.5C 171.5,309.5 171.5,313.5 171.5,317.5C 167.5,317.5 163.5,317.5 159.5,317.5C 159.5,313.5 159.5,309.5 159.5,305.5C 155.5,305.5 151.5,305.5 147.5,305.5C 143.167,305.5 138.833,305.5 134.5,305.5C 134.5,301.833 134.5,298.167 134.5,294.5 Z"/></g>
<g><path style="opacity:1" fill="#373425" d="M 195.5,294.5 C 199.5,294.5 203.5,294.5 207.5,294.5C 207.5,298.167 207.5,301.833 207.5,305.5C 203.5,305.5 199.5,305.5 195.5,305.5C 195.5,301.833 195.5,298.167 195.5,294.5 Z"/></g>
<g><path style="opacity:1" fill="#726b4d" d="M 207.5,294.5 C 211.5,294.5 215.5,294.5 219.5,294.5C 219.5,302.167 219.5,309.833 219.5,317.5C 215.5,317.5 211.5,317.5 207.5,317.5C 207.5,313.5 207.5,309.5 207.5,305.5C 207.5,301.833 207.5,298.167 207.5,294.5 Z"/></g>
<g><path style="opacity:1" fill="#4f5240" d="M 61.5,305.5 C 61.5,309.5 61.5,313.5 61.5,317.5C 57.5,317.5 53.5,317.5 49.5,317.5C 49.5,313.5 49.5,309.5 49.5,305.5C 53.5,305.5 57.5,305.5 61.5,305.5 Z"/></g>
<g><path style="opacity:1" fill="#8e8560" d="M 74.5,305.5 C 82.1667,305.5 89.8333,305.5 97.5,305.5C 101.833,305.5 106.167,305.5 110.5,305.5C 114.167,305.5 117.833,305.5 121.5,305.5C 121.5,309.5 121.5,313.5 121.5,317.5C 117.833,317.5 114.167,317.5 110.5,317.5C 98.5,317.5 86.5,317.5 74.5,317.5C 74.5,313.5 74.5,309.5 74.5,305.5 Z"/></g>
<g><path style="opacity:1" fill="#514d39" d="M 110.5,294.5 C 118.5,294.5 126.5,294.5 134.5,294.5C 134.5,298.167 134.5,301.833 134.5,305.5C 138.833,305.5 143.167,305.5 147.5,305.5C 147.5,309.5 147.5,313.5 147.5,317.5C 138.833,317.5 130.167,317.5 121.5,317.5C 121.5,313.5 121.5,309.5 121.5,305.5C 117.833,305.5 114.167,305.5 110.5,305.5C 110.5,301.833 110.5,298.167 110.5,294.5 Z"/></g>
<g><path style="opacity:1" fill="#373425" d="M 147.5,305.5 C 151.5,305.5 155.5,305.5 159.5,305.5C 159.5,309.5 159.5,313.5 159.5,317.5C 155.5,317.5 151.5,317.5 147.5,317.5C 147.5,313.5 147.5,309.5 147.5,305.5 Z"/></g>
<g><path style="opacity:1" fill="#514c36" d="M 195.5,305.5 C 195.5,309.5 195.5,313.5 195.5,317.5C 187.5,317.5 179.5,317.5 171.5,317.5C 171.5,313.5 171.5,309.5 171.5,305.5C 179.5,305.5 187.5,305.5 195.5,305.5 Z"/></g>
<g><path style="opacity:1" fill="#8e8560" d="M 195.5,305.5 C 199.5,305.5 203.5,305.5 207.5,305.5C 207.5,309.5 207.5,313.5 207.5,317.5C 203.5,317.5 199.5,317.5 195.5,317.5C 195.5,313.5 195.5,309.5 195.5,305.5 Z"/></g>
<g><path style="opacity:1" fill="#3d4031" d="M 243.5,305.5 C 247.5,305.5 251.5,305.5 255.5,305.5C 255.5,310.167 255.5,314.833 255.5,319.5C 255.5,323.5 255.5,327.5 255.5,331.5C 251.5,331.5 247.5,331.5 243.5,331.5C 243.5,322.833 243.5,314.167 243.5,305.5 Z"/></g>
<g><path style="opacity:1" fill="#686146" d="M 61.5,305.5 C 65.8333,305.5 70.1667,305.5 74.5,305.5C 74.5,309.5 74.5,313.5 74.5,317.5C 74.5,321.833 74.5,326.167 74.5,330.5C 66.16,330.666 57.8267,330.5 49.5,330C 49.213,325.958 49.213,321.791 49.5,317.5C 53.5,317.5 57.5,317.5 61.5,317.5C 61.5,313.5 61.5,309.5 61.5,305.5 Z"/></g>
<g><path style="opacity:1" fill="#514d39" d="M 74.5,317.5 C 86.5,317.5 98.5,317.5 110.5,317.5C 110.5,321.833 110.5,326.167 110.5,330.5C 110.5,334.833 110.5,339.167 110.5,343.5C 102.167,343.5 93.8333,343.5 85.5,343.5C 85.5,339.167 85.5,334.833 85.5,330.5C 81.8333,330.5 78.1667,330.5 74.5,330.5C 74.5,326.167 74.5,321.833 74.5,317.5 Z"/></g>
<g><path style="opacity:1" fill="#373425" d="M 110.5,317.5 C 114.167,317.5 117.833,317.5 121.5,317.5C 121.5,321.833 121.5,326.167 121.5,330.5C 117.833,330.5 114.167,330.5 110.5,330.5C 110.5,326.167 110.5,321.833 110.5,317.5 Z"/></g>
<g><path style="opacity:1" fill="#8e8560" d="M 121.5,317.5 C 130.167,317.5 138.833,317.5 147.5,317.5C 151.5,317.5 155.5,317.5 159.5,317.5C 159.5,322.167 159.5,326.833 159.5,331.5C 150.833,331.5 142.167,331.5 133.5,331.5C 133.5,335.5 133.5,339.5 133.5,343.5C 125.833,343.5 118.167,343.5 110.5,343.5C 110.5,339.167 110.5,334.833 110.5,330.5C 114.167,330.5 117.833,330.5 121.5,330.5C 121.5,326.167 121.5,321.833 121.5,317.5 Z"/></g>
<g><path style="opacity:1" fill="#514c36" d="M 159.5,317.5 C 163.5,317.5 167.5,317.5 171.5,317.5C 171.5,322.167 171.5,326.833 171.5,331.5C 167.5,331.5 163.5,331.5 159.5,331.5C 159.5,326.833 159.5,322.167 159.5,317.5 Z"/></g>
<g><path style="opacity:1" fill="#373425" d="M 171.5,317.5 C 179.5,317.5 187.5,317.5 195.5,317.5C 195.5,322.167 195.5,326.833 195.5,331.5C 190.833,331.5 186.167,331.5 181.5,331.5C 181.5,335.5 181.5,339.5 181.5,343.5C 174.167,343.5 166.833,343.5 159.5,343.5C 159.5,339.5 159.5,335.5 159.5,331.5C 163.5,331.5 167.5,331.5 171.5,331.5C 171.5,326.833 171.5,322.167 171.5,317.5 Z"/></g>
<g><path style="opacity:1" fill="#4f4e3c" d="M 219.5,281.5 C 223.5,281.5 227.5,281.5 231.5,281.5C 231.5,285.833 231.5,290.167 231.5,294.5C 235.5,294.5 239.5,294.5 243.5,294.5C 243.5,298.167 243.5,301.833 243.5,305.5C 243.5,314.167 243.5,322.833 243.5,331.5C 231.5,331.5 219.5,331.5 207.5,331.5C 207.5,335.5 207.5,339.5 207.5,343.5C 198.833,343.5 190.167,343.5 181.5,343.5C 181.5,339.5 181.5,335.5 181.5,331.5C 186.167,331.5 190.833,331.5 195.5,331.5C 195.5,326.833 195.5,322.167 195.5,317.5C 199.5,317.5 203.5,317.5 207.5,317.5C 211.5,317.5 215.5,317.5 219.5,317.5C 219.5,309.833 219.5,302.167 219.5,294.5C 219.5,290.167 219.5,285.833 219.5,281.5 Z"/></g>
<g><path style="opacity:1" fill="#726b4d" d="M 255.5,319.5 C 259.5,319.5 263.5,319.5 267.5,319.5C 267.5,323.5 267.5,327.5 267.5,331.5C 263.5,331.5 259.5,331.5 255.5,331.5C 255.5,327.5 255.5,323.5 255.5,319.5 Z"/></g>
<g><path style="opacity:1" fill="#514c36" d="M 159.5,331.5 C 159.5,335.5 159.5,339.5 159.5,343.5C 150.833,343.5 142.167,343.5 133.5,343.5C 133.5,339.5 133.5,335.5 133.5,331.5C 142.167,331.5 150.833,331.5 159.5,331.5 Z"/></g>
</svg>
